<?xml version="1.0" encoding="utf-8"?>
<!-- Generator: Adobe Illustrator 18.1.0, SVG Export Plug-In . SVG Version: 6.00 Build 0)  -->
<!DOCTYPE svg PUBLIC "-//W3C//DTD SVG 1.1//EN" "http://www.w3.org/Graphics/SVG/1.1/DTD/svg11.dtd">
<svg version="1.1" id="Layer_1" xmlns="http://www.w3.org/2000/svg" xmlns:xlink="http://www.w3.org/1999/xlink" x="0px" y="0px"
	 viewBox="0 0 500 500" enable-background="new 0 0 500 500" xml:space="preserve">
<path fill="#F39325" d="M64.1,0h371.6C471.2,0,500,26.2,500,64.1v371.6c0,38-28.8,64.1-64.1,64.1H64.1C28.8,500,0,473.8,0,435.9
	V64.1C0,26.2,28.8,0,64.1,0L64.1,0z M364.5,55.5c-12.4,0-22.6,10.2-22.6,22.6V132c0,12.4,10.2,22.6,22.6,22.6H421
	c12.4,0,22.6-10.2,22.6-22.6V78.1c0-12.4-10.3-22.6-22.6-22.6H364.5L364.5,55.5z M443.5,211.5h-44.1c4.1,13.4,6.2,28.2,6.2,43.1
	c0,83.1-69.9,150.4-155.5,150.4S94.5,337.6,94.5,254.6c0-14.9,2-29.4,6.2-43.1H54.9v211c0,10.8,8.8,20,20,20h348
	c10.8,0,20-8.8,20-20L443.5,211.5L443.5,211.5z M250.5,151.4c-55.4,0-100.6,43.6-100.6,97.5s45.2,97.5,100.6,97.5
	s100.6-43.6,100.6-97.5S306,151.4,250.5,151.4z"/>
</svg>
