<?xml version="1.0" encoding="utf-8"?>
<!-- Generator: Adobe Illustrator 18.1.0, SVG Export Plug-In . SVG Version: 6.00 Build 0)  -->
<!DOCTYPE svg PUBLIC "-//W3C//DTD SVG 1.1//EN" "http://www.w3.org/Graphics/SVG/1.1/DTD/svg11.dtd">
<svg version="1.1" id="Layer_1" xmlns="http://www.w3.org/2000/svg" xmlns:xlink="http://www.w3.org/1999/xlink" x="0px" y="0px"
	 viewBox="0.1 94.6 499.8 405.4" enable-background="new 0.1 94.6 499.8 405.4" xml:space="preserve">
<path fill="#F39325" d="M499.5,141.9c-0.5-1.1-2-1.1-3.1-0.5c-14.8,6.6-30.6,11.1-47,14.3c17.4-12.8,30.1-30.6,36.2-51
	c0.5-1.1,0-2-1.1-2.5s-2-0.5-3.1,0c-19.4,11.1-40.3,19.4-62.2,24c-19.4-20.4-46.4-31.6-74.4-31.6c-57.1,0-103.5,46.4-103.5,103.5
	c0,7.1,0.5,13.8,2,20.4C164.5,213.5,90.5,175.7,40,114c-0.5-0.5-1.5-1.1-2-1.1c-1.1,0-1.5,0.5-2,1.1c-9.2,15.9-14.4,33.8-14.4,52.1
	c0,31.6,14.2,61.8,38.8,81.1c-12.8-1.5-25-5.6-36.2-11.8c-0.5-0.5-1.5-0.5-2.5,0c-0.5,0.5-1.1,1.1-1.1,2v1.5
	c0,45.4,30.1,85.8,72.9,98.9c-11.1,1.9-22.9,1.4-34.6-0.6c-1.1,0-1.5,0-2.5,1.1c-0.5,0.5-1.1,1.5-0.5,2.5
	c12.8,40.2,48.4,68.4,89.8,71.5C111.1,437.7,70.2,451,26.8,451c-8.2,0-15.8-0.5-24-1.5c-1.1,0-2,0.5-2.5,1.5c-0.5,1.1,0,2,1.1,3.1
	c47,30.1,101,45.9,156.6,45.9c181.5,0,290.1-147.5,290.1-290.1c0-4,0-8.2,0-11.8c19.4-14.2,36.2-32.1,50-52.1
	C500.5,144.1,500,142.9,499.5,141.9z"/>
</svg>
