<?xml version="1.0" encoding="utf-8"?>
<!-- Generator: Adobe Illustrator 18.1.0, SVG Export Plug-In . SVG Version: 6.00 Build 0)  -->
<!DOCTYPE svg PUBLIC "-//W3C//DTD SVG 1.1//EN" "http://www.w3.org/Graphics/SVG/1.1/DTD/svg11.dtd">
<svg version="1.1" id="Layer_4" xmlns="http://www.w3.org/2000/svg" xmlns:xlink="http://www.w3.org/1999/xlink" x="0px" y="0px"
	 viewBox="0 152.6 500 347.4" enable-background="new 0 152.6 500 347.4" xml:space="preserve">
<path fill="#F39325" d="M491.1,208.3c-6.2-26.8-27.9-46.4-54.1-49c-61.8-6.7-124.8-6.7-187.1-6.7s-125.2,0-187.1,6.8
	c-26.1,3.1-47.7,22.6-54,49C0,245.9,0,287.2,0,326.4s0,80.5,8.8,118c6.2,26.8,27.9,46.4,54.1,49C124.8,500,187.7,500,250,500
	c62.2,0,125.2,0,187.1-6.8c26.2-3.1,48-22.6,54.1-49c8.8-37.6,8.8-78.9,8.8-118C499.4,287.2,499.9,245.9,491.1,208.3z M185.5,403.5
	c0-55.1,0-109.8,0-164.9c53.1,27.9,105.6,55.1,158.8,83C291.1,349,238.6,376.2,185.5,403.5z"/>
</svg>
